<svg version="1.1" xmlns="http://www.w3.org/2000/svg" viewBox="0 0 885.0859210742777 531" width="885.0859210742777" height="531" filter="invert(93%) hue-rotate(180deg)">
  <!-- svg-source:excalidraw -->
  
  <defs>
    <style class="style-fonts">
      @font-face {
        font-family: "Virgil";
        src: url("https://excalidraw.com/Virgil.woff2");
      }
      @font-face {
        font-family: "Cascadia";
        src: url("https://excalidraw.com/Cascadia.woff2");
      }
      @font-face {
        font-family: "Assistant";
        src: url("https://excalidraw.com/Assistant-Regular.woff2");
      }
    </style>
    
  </defs>
  <g stroke-linecap="round"><g transform="translate(182.85590667218352 10) rotate(0 172.5 255.5)"><path d="M0 0 C-0.94 80.98, -1.02 163.07, 0 283 M0 0 C1.33 84.75, 1.92 169.51, 0 283 M0 283 C136.81 371.51, 272.4 461.93, 345 511 M0 283 C94.23 346.51, 188.91 408.99, 345 511 M345 511 C346.55 421.05, 347.2 332.83, 345 206 M345 511 C345.27 427.42, 344.78 343.66, 345 206 M345 206 C267.64 162.33, 190.95 116.93, 0 0 M345 206 C230.94 138.48, 116.13 69.51, 0 0" stroke="#e03131" stroke-width="2" fill="none"></path></g></g><mask></mask><g stroke-linecap="round"><g transform="translate(507.85590667218355 74) rotate(0 121.5 92)"><path d="M0 0 C69.53 12.01, 141.53 22.09, 243 42 M0 0 C62.87 11.94, 126.52 24.26, 243 42 M243 42 C209.26 95.5, 175.91 149.75, 155 184 M243 42 C218.35 81.78, 193.92 122.1, 155 184 M155 184 C121.92 146.06, 88.43 109.16, 0 0 M155 184 C121.41 142.12, 86.78 101.19, 0 0" stroke="#1e1e1e" stroke-width="2" fill="none"></path></g></g><mask></mask><g stroke-linecap="round"><g transform="translate(284.35590667218355 220) rotate(0 60 45.4320987654321)"><path d="M0 0 C27.63 5.89, 56.53 10.15, 120 20.74 M0 0 C25.64 2.69, 49.17 8.65, 120 20.74 M120 20.74 C112.23 35.91, 102.61 50.89, 76.54 90.86 M120 20.74 C107.58 39.1, 95.8 58, 76.54 90.86 M76.54 90.86 C54.58 65.76, 35.58 41.58, 0 0 M76.54 90.86 C47.54 57.12, 17.31 21.56, 0 0" stroke="#1e1e1e" stroke-width="2" fill="none"></path></g></g><mask></mask><g stroke-linecap="round"><g transform="translate(8.887817860942079 374.36990669146303) rotate(346.71306099424 25.46753610291958 -1.872919033576352)"><path d="M0 0 C13.99 -6.97, 25.87 -13.68, 49 -22 M0 0 C11.41 -4.87, 25.3 -10.91, 49 -22 M49 -22 C47.47 -6.25, 51.23 6.86, 50.94 18.25 M49 -22 C49.54 -7.83, 50.55 5.05, 50.94 18.25 M50.94 18.25 C32 10.67, 14.52 7.42, 0 0 M50.94 18.25 C35.95 12.43, 18.1 6.35, 0 0" stroke="#1e1e1e" stroke-width="2" fill="none"></path></g></g><mask></mask><g stroke-linecap="round"><g transform="translate(507.85590667218355 73) rotate(0 -215 143)"><path d="M0 0 C-112.55 73.23, -224.31 147.6, -430 286 M0 0 C-170.71 115.3, -342.15 228.68, -430 286" stroke="#1971c2" stroke-width="1" fill="none"></path></g></g><mask></mask><g stroke-linecap="round"><g transform="translate(750.8559066721836 116) rotate(0 -337.5 121.5)"><path d="M0 0 C-242.43 86.09, -485.08 173.27, -675 243 M0 0 C-181.03 63.08, -362.07 128.67, -675 243" stroke="#1971c2" stroke-width="1" fill="none"></path></g></g><mask></mask><g stroke-linecap="round"><g transform="translate(662.8559066721836 259) rotate(0 -293.5 51)"><path d="M0 0 C-205.12 37.42, -409.78 73.57, -587 102 M0 0 C-139.41 23.78, -279.69 47.48, -587 102" stroke="#1971c2" stroke-width="1" fill="none"></path></g></g><mask></mask><g stroke-linecap="round"><g transform="translate(53.69087573155136 357.8191802166484) rotate(0 0.1092127021625231 10.156781301113142)" fill-rule="evenodd"><path d="M0.3 -0.79 L4.93 19.6 L-5.68 11.49 L0.55 0.82" stroke="none" stroke-width="0" fill="#a5d8ff" fill-rule="evenodd"></path><path d="M0 0 C1.36 6.84, 2.81 12.1, 5.9 20.31 M0 0 C1.89 7.11, 3.71 14.32, 5.9 20.31 M5.9 20.31 C3.29 17.24, -0.38 14.89, -5.68 11.79 M5.9 20.31 C2.68 17.51, -1.11 15.14, -5.68 11.79 M-5.68 11.79 C-3.65 8.71, -2.11 5, 0 0 M-5.68 11.79 C-3.76 7.49, -1.31 2.95, 0 0 M0 0 C0 0, 0 0, 0 0 M0 0 C0 0, 0 0, 0 0" stroke="#1971c2" stroke-width="2" fill="none"></path></g></g><mask></mask><g transform="translate(461.30526725718073 36.966349066629846) rotate(0 50.83333206176758 12.5)"><text x="0" y="0" font-family="Virgil, Segoe UI Emoji" font-size="20px" fill="#1971c2" text-anchor="start" style="white-space: pre;" direction="ltr" dominant-baseline="text-before-edge">Ax, Ay, Az</text></g><g transform="translate(769.1692569507425 97.66988411873785) rotate(0 52.958332061767635 12.5)"><text x="0" y="0" font-family="Virgil, Segoe UI Emoji" font-size="20px" fill="#1971c2" text-anchor="start" style="white-space: pre;" direction="ltr" dominant-baseline="text-before-edge">Bx, By, Bz</text></g><g transform="translate(671.8796613830019 268.1295443115039) rotate(0 50.483333587646484 12.5)"><text x="0" y="0" font-family="Virgil, Segoe UI Emoji" font-size="20px" fill="#1971c2" text-anchor="start" style="white-space: pre;" direction="ltr" dominant-baseline="text-before-edge">Cx, Cy, Cz</text></g><g transform="translate(221.82513115814126 183.37341917084603) rotate(0 44.20833206176758 12.5)"><text x="0" y="0" font-family="Virgil, Segoe UI Emoji" font-size="20px" fill="#1971c2" text-anchor="start" style="white-space: pre;" direction="ltr" dominant-baseline="text-before-edge">PAx, PAy</text></g><g transform="translate(409.7765816902023 241.9854246500368) rotate(0 45.625 12.5)"><text x="0" y="0" font-family="Virgil, Segoe UI Emoji" font-size="20px" fill="#1971c2" text-anchor="start" style="white-space: pre;" direction="ltr" dominant-baseline="text-before-edge">PBx, PBy</text></g><g transform="translate(335.8134928821381 324.55166534276873) rotate(0 43.974998474121094 12.5)"><text x="0" y="0" font-family="Virgil, Segoe UI Emoji" font-size="20px" fill="#1971c2" text-anchor="start" style="white-space: pre;" direction="ltr" dominant-baseline="text-before-edge">PCx, PCy</text></g><g transform="translate(282.4794887727453 404.0297891136288) rotate(0 31 12.5)"><text x="0" y="0" font-family="Virgil, Segoe UI Emoji" font-size="20px" fill="#e03131" text-anchor="start" style="white-space: pre;" direction="ltr" dominant-baseline="text-before-edge">Screen</text></g><g transform="translate(25.22135130390822 398.8009651813355) rotate(0 16.899999618530273 12.5)"><text x="0" y="0" font-family="Virgil, Segoe UI Emoji" font-size="20px" fill="#1971c2" text-anchor="start" style="white-space: pre;" direction="ltr" dominant-baseline="text-before-edge">Eye</text></g></svg>