<svg version="1.1" xmlns="http://www.w3.org/2000/svg" viewBox="0 0 428 416" width="428" height="416" filter="invert(93%) hue-rotate(180deg)">
  <!-- svg-source:excalidraw -->
  
  <defs>
    <style class="style-fonts">
      @font-face {
        font-family: "Virgil";
        src: url("https://excalidraw.com/Virgil.woff2");
      }
      @font-face {
        font-family: "Cascadia";
        src: url("https://excalidraw.com/Cascadia.woff2");
      }
      @font-face {
        font-family: "Assistant";
        src: url("https://excalidraw.com/Assistant-Regular.woff2");
      }
    </style>
    
  </defs>
  <g stroke-linecap="round"><g transform="translate(248 42) rotate(0 -83.5 77)"><path d="M0 0 C-27.83 25.67, -139.17 128.33, -167 154 M0 0 C-27.83 25.67, -139.17 128.33, -167 154" stroke="#1e1e1e" stroke-width="2" fill="none"></path></g></g><mask></mask><g stroke-linecap="round"><g transform="translate(248 43) rotate(0 77.5 168.5)"><path d="M0 0 C25.83 56.17, 129.17 280.83, 155 337 M0 0 C25.83 56.17, 129.17 280.83, 155 337" stroke="#1e1e1e" stroke-width="2" fill="none"></path></g></g><mask></mask><g stroke-linecap="round"><g transform="translate(82 196) rotate(0 160 91.5)"><path d="M0 0 C53.33 30.5, 266.67 152.5, 320 183 M0 0 C53.33 30.5, 266.67 152.5, 320 183" stroke="#1e1e1e" stroke-width="2" fill="none"></path></g></g><mask></mask><g stroke-linecap="round"><g transform="translate(10 195) rotate(0 197 0)"><path d="M0 0 C65.67 0, 328.33 0, 394 0" stroke="#1971c2" stroke-width="2.5" fill="none" stroke-dasharray="1.5 8"></path></g></g><mask></mask><g transform="translate(241 10) rotate(0 5.558333396911621 11.5)"><text x="0" y="18.400390625" font-family="Helvetica, Segoe UI Emoji" font-size="20px" fill="#1971c2" text-anchor="start" style="white-space: pre;" direction="ltr" dominant-baseline="alphabetic">a</text></g><g transform="translate(408 383) rotate(0 5 11.5)"><text x="0" y="18.400390625" font-family="Helvetica, Segoe UI Emoji" font-size="20px" fill="#1971c2" text-anchor="start" style="white-space: pre;" direction="ltr" dominant-baseline="alphabetic">c</text></g><g transform="translate(51 163) rotate(0 11.116666793823242 11.5)"><text x="0" y="18.400390625" font-family="Helvetica, Segoe UI Emoji" font-size="20px" fill="#1971c2" text-anchor="start" style="white-space: pre;" direction="ltr" dominant-baseline="alphabetic">b1</text></g><g transform="translate(325 160) rotate(0 11.116666793823242 11.5)"><text x="0" y="18.400390625" font-family="Helvetica, Segoe UI Emoji" font-size="20px" fill="#1971c2" text-anchor="start" style="white-space: pre;" direction="ltr" dominant-baseline="alphabetic">b2</text></g><g stroke-linecap="round"><g transform="translate(238.2000857739725 56) rotate(0 7.9831146333046945 -0.016885366695319703)"><path d="M0 0 C6.24 0.29, 11.86 -0.24, 15.97 -0.03" stroke="#e03131" stroke-width="1.5" fill="none" stroke-dasharray="1.5 7"></path></g></g><mask></mask><g stroke-linecap="round"><g transform="translate(225.961539074156 67.45934245829406) rotate(0 15.377339659185736 0.25844268334765275)"><path d="M0 0 C6.55 -0.24, 16.05 0.68, 30.75 0.52" stroke="#e03131" stroke-width="1.5" fill="none" stroke-dasharray="1.5 7"></path></g></g><mask></mask><g stroke-linecap="round"><g transform="translate(214.07317564016364 79.20097377766413) rotate(0 24.810497601375317 0.12922134167382637)"><path d="M0 0 C16.43 0.66, 34.3 -0.26, 49.62 0.26" stroke="#e03131" stroke-width="1.5" fill="none" stroke-dasharray="1.5 7"></path></g></g><mask></mask><g stroke-linecap="round"><g transform="translate(202.73671911876352 91.05431566575962) rotate(0 31.013122001719154 0)"><path d="M0 0 C15.19 -1.36, 34.21 0.25, 62.03 0" stroke="#e03131" stroke-width="1.5" fill="none" stroke-dasharray="1.5 7"></path></g></g><mask></mask><g stroke-linecap="round"><g transform="translate(191.4210963358292 102.77511324666386) rotate(0 39.41250921051807 0.25844268334765275)"><path d="M0 0 C17.37 0.04, 31.34 -1.81, 78.83 0.52" stroke="#e03131" stroke-width="1.5" fill="none" stroke-dasharray="1.5 7"></path></g></g><mask></mask><g stroke-linecap="round"><g transform="translate(177.4651914350556 114.4400555432054) rotate(0 49.620995202750606 0.3876640250214791)"><path d="M0 0 C32.14 -0.13, 65.83 0.96, 99.24 0.78" stroke="#e03131" stroke-width="1.5" fill="none" stroke-dasharray="1.5 7"></path></g></g><mask></mask><g stroke-linecap="round"><g transform="translate(162.01448571855872 128.24922832935673) rotate(0 60.0879238783308 0.7753280500429867)"><path d="M0 0 C45.43 -1.63, 87.74 -0.93, 120.18 1.55" stroke="#e03131" stroke-width="1.5" fill="none" stroke-dasharray="1.5 7"></path></g></g><mask></mask><g stroke-linecap="round"><g transform="translate(149.09235155117574 138.88039989250763) rotate(0 68.87497511215122 0.904549391716813)"><path d="M0 0 C39.39 0.1, 78.02 1.05, 137.75 1.81" stroke="#e03131" stroke-width="1.5" fill="none" stroke-dasharray="1.5 7"></path></g></g><mask></mask><g stroke-linecap="round"><g transform="translate(135.95792190418388 150.04929056081966) rotate(0 79.36023684686563 1.1000428869862446)"><path d="M0 0 C53.57 2.58, 110.62 2.55, 158.72 2.2" stroke="#e03131" stroke-width="1.5" fill="none" stroke-dasharray="1.5 7"></path></g></g><mask></mask><g stroke-linecap="round"><g transform="translate(124.64319506661093 161.04971943068222) rotate(0 87.53198400733498 1.4143408546966043)"><path d="M0 0 C48.81 2.54, 98.15 3.94, 175.06 2.83" stroke="#e03131" stroke-width="1.5" fill="none" stroke-dasharray="1.5 7"></path></g></g><mask></mask><g stroke-linecap="round"><g transform="translate(111.44268042277588 173.935936106807) rotate(0 96.64662507093539 1.2571918708414103)"><path d="M0 0 C42.9 -1.77, 90.53 -1.17, 193.29 2.51" stroke="#e03131" stroke-width="1.5" fill="none" stroke-dasharray="1.5 7"></path></g></g><mask></mask><g stroke-linecap="round"><g transform="translate(99.18505968207188 184.9363649766695) rotate(0 104.97552121525987 1.1000428869862446)"><path d="M0 0 C83.48 0.83, 165.98 -0.5, 209.95 2.2" stroke="#e03131" stroke-width="1.5" fill="none" stroke-dasharray="1.5 7"></path></g></g><mask></mask></svg>