<?xml version="1.0" encoding="utf-8" ?>
<svg baseProfile="full" height="512" version="1.1" viewBox="-0.5 -0.5 1.0 1.0" width="512" xmlns="http://www.w3.org/2000/svg" xmlns:ev="http://www.w3.org/2001/xml-events" xmlns:xlink="http://www.w3.org/1999/xlink"><defs /><g><polygon fill="rgb(177,177,0)" fill-opacity="1.0" points="-0.0,-0.40118 -0.01721,-0.39924 -0.11691,-0.38701" stroke="black" stroke-width="0.001" /><polygon fill="rgb(128,128,0)" fill-opacity="1.0" points="-0.21932,-0.33324 -0.2167,-0.33552 -0.29417,-0.27725" stroke="black" stroke-width="0.001" /><polygon fill="rgb(0,0,0)" fill-opacity="1.0" points="-0.25891,0.30324 -0.26833,0.29821 -0.18123,0.36087" stroke="black" stroke-width="0.001" /><polygon fill="rgb(208,208,0)" fill-opacity="1.0" points="0.37121,-0.15775 0.33595,-0.21678 0.29913,-0.27023" stroke="black" stroke-width="0.001" /><polygon fill="rgb(147,147,0)" fill-opacity="1.0" points="-0.11691,-0.38701 -0.2167,-0.33552 -0.21932,-0.33324" stroke="black" stroke-width="0.001" /><polygon fill="rgb(0,0,0)" fill-opacity="1.0" points="-0.3803,0.11685 -0.40372,0.01896 -0.38237,0.12313" stroke="black" stroke-width="0.001" /><polygon fill="rgb(184,184,0)" fill-opacity="1.0" points="0.40103,-0.05037 0.39283,0.04814 0.3942,0.07538" stroke="black" stroke-width="0.001" /><polygon fill="rgb(0,0,0)" fill-opacity="1.0" points="-0.33742,0.22069 -0.26833,0.29821 -0.25891,0.30324" stroke="black" stroke-width="0.001" /><polygon fill="rgb(206,206,0)" fill-opacity="1.0" points="0.09456,-0.39137 0.12194,-0.37379 0.213,-0.34364" stroke="black" stroke-width="0.001" /><polygon fill="rgb(0,0,0)" fill-opacity="1.0" points="-0.3803,0.11685 -0.38237,0.12313 -0.33742,0.22069" stroke="black" stroke-width="0.001" /><polygon fill="rgb(177,177,0)" fill-opacity="1.0" points="0.3942,0.07538 0.39283,0.04814 0.36606,0.16807" stroke="black" stroke-width="0.001" /><polygon fill="rgb(0,0,0)" fill-opacity="1.0" points="-0.14055,0.36436 -0.18123,0.36087 -0.07758,0.39672" stroke="black" stroke-width="0.001" /><polygon fill="rgb(205,205,0)" fill-opacity="1.0" points="0.09456,-0.39137 -0.0,-0.40118 0.12194,-0.37379" stroke="black" stroke-width="0.001" /><polygon fill="rgb(0,0,0)" fill-opacity="1.0" points="0.03446,0.40181 0.13204,0.38133 0.11529,0.37216" stroke="black" stroke-width="0.001" /><polygon fill="rgb(0,0,0)" fill-opacity="1.0" points="-0.38725,-0.01506 -0.39367,-0.0898 -0.40372,0.01896" stroke="black" stroke-width="0.001" /><polygon fill="rgb(151,151,0)" fill-opacity="1.0" points="0.30382,0.26588 0.36606,0.16807 0.29705,0.24972" stroke="black" stroke-width="0.001" /><polygon fill="rgb(69,69,0)" fill-opacity="1.0" points="0.13204,0.38133 0.21496,0.33912 0.11529,0.37216" stroke="black" stroke-width="0.001" /><polygon fill="rgb(209,209,0)" fill-opacity="1.0" points="0.40103,-0.05037 0.37121,-0.15775 0.3788,-0.08109" stroke="black" stroke-width="0.001" /><polygon fill="rgb(133,133,0)" fill-opacity="1.0" points="0.30382,0.26588 0.29705,0.24972 0.21496,0.33912" stroke="black" stroke-width="0.001" /><polygon fill="rgb(220,220,0)" fill-opacity="1.0" points="0.29913,-0.27023 0.213,-0.34364 0.23466,-0.30581" stroke="black" stroke-width="0.001" /><polygon fill="rgb(0,0,0)" fill-opacity="1.0" points="-0.25891,0.30324 -0.18123,0.36087 -0.14055,0.36436" stroke="black" stroke-width="0.001" /><polygon fill="rgb(127,127,0)" fill-opacity="1.0" points="-0.28937,-0.25302 -0.29417,-0.27725 -0.35195,-0.19406" stroke="black" stroke-width="0.001" /><polygon fill="rgb(0,0,0)" fill-opacity="1.0" points="-0.02133,0.38209 -0.07758,0.39672 0.03446,0.40181" stroke="black" stroke-width="0.001" /><polygon fill="rgb(192,192,0)" fill-opacity="1.0" points="-0.0,-0.40118 -0.11691,-0.38701 -0.10158,-0.36891" stroke="black" stroke-width="0.001" /><polygon fill="rgb(0,0,0)" fill-opacity="1.0" points="-0.38725,-0.01506 -0.40372,0.01896 -0.3803,0.11685" stroke="black" stroke-width="0.001" /><polygon fill="rgb(144,144,0)" fill-opacity="1.0" points="-0.21932,-0.33324 -0.29417,-0.27725 -0.28937,-0.25302" stroke="black" stroke-width="0.001" /><polygon fill="rgb(206,206,0)" fill-opacity="1.0" points="0.40103,-0.05037 0.3788,-0.08109 0.39283,0.04814" stroke="black" stroke-width="0.001" /><polygon fill="rgb(220,220,0)" fill-opacity="1.0" points="0.37121,-0.15775 0.29913,-0.27023 0.32404,-0.20416" stroke="black" stroke-width="0.001" /><polygon fill="rgb(180,180,0)" fill-opacity="1.0" points="-0.11691,-0.38701 -0.21932,-0.33324 -0.10158,-0.36891" stroke="black" stroke-width="0.001" /><polygon fill="rgb(91,91,0)" fill-opacity="1.0" points="-0.3541,-0.13074 -0.35195,-0.19406 -0.39367,-0.0898" stroke="black" stroke-width="0.001" /><polygon fill="rgb(222,222,0)" fill-opacity="1.0" points="0.213,-0.34364 0.12194,-0.37379 0.23466,-0.30581" stroke="black" stroke-width="0.001" /><polygon fill="rgb(0,0,0)" fill-opacity="1.0" points="-0.3144,0.20886 -0.33742,0.22069 -0.25891,0.30324" stroke="black" stroke-width="0.001" /><polygon fill="rgb(0,0,0)" fill-opacity="1.0" points="-0.14055,0.36436 -0.07758,0.39672 -0.02133,0.38209" stroke="black" stroke-width="0.001" /><polygon fill="rgb(0,0,0)" fill-opacity="1.0" points="-0.3144,0.20886 -0.3803,0.11685 -0.33742,0.22069" stroke="black" stroke-width="0.001" /><polygon fill="rgb(192,192,0)" fill-opacity="1.0" points="0.36606,0.16807 0.39283,0.04814 0.34816,0.14223" stroke="black" stroke-width="0.001" /><polygon fill="rgb(77,77,0)" fill-opacity="1.0" points="-0.02133,0.38209 0.03446,0.40181 0.11529,0.37216" stroke="black" stroke-width="0.001" /><polygon fill="rgb(226,226,0)" fill-opacity="1.0" points="0.3788,-0.08109 0.37121,-0.15775 0.32404,-0.20416" stroke="black" stroke-width="0.001" /><polygon fill="rgb(88,88,0)" fill-opacity="1.0" points="-0.3541,-0.13074 -0.39367,-0.0898 -0.38725,-0.01506" stroke="black" stroke-width="0.001" /><polygon fill="rgb(231,231,0)" fill-opacity="1.0" points="0.32404,-0.20416 0.29913,-0.27023 0.23466,-0.30581" stroke="black" stroke-width="0.001" /><polygon fill="rgb(180,180,0)" fill-opacity="1.0" points="0.29705,0.24972 0.36606,0.16807 0.34816,0.14223" stroke="black" stroke-width="0.001" /><polygon fill="rgb(218,218,0)" fill-opacity="1.0" points="0.12194,-0.37379 -0.0,-0.40118 0.01894,-0.36961" stroke="black" stroke-width="0.001" /><polygon fill="rgb(141,141,0)" fill-opacity="1.0" points="-0.3541,-0.13074 -0.28937,-0.25302 -0.35195,-0.19406" stroke="black" stroke-width="0.001" /><polygon fill="rgb(134,134,0)" fill-opacity="1.0" points="0.11529,0.37216 0.21496,0.33912 0.1915,0.30915" stroke="black" stroke-width="0.001" /><polygon fill="rgb(153,153,0)" fill-opacity="1.0" points="0.21496,0.33912 0.29705,0.24972 0.1915,0.30915" stroke="black" stroke-width="0.001" /><polygon fill="rgb(211,211,0)" fill-opacity="1.0" points="0.01894,-0.36961 -0.0,-0.40118 -0.10158,-0.36891" stroke="black" stroke-width="0.001" /><polygon fill="rgb(0,0,0)" fill-opacity="1.0" points="-0.25891,0.30324 -0.14055,0.36436 -0.2105,0.28282" stroke="black" stroke-width="0.001" /><polygon fill="rgb(179,179,0)" fill-opacity="1.0" points="-0.19827,-0.29426 -0.21932,-0.33324 -0.28937,-0.25302" stroke="black" stroke-width="0.001" /><polygon fill="rgb(193,193,0)" fill-opacity="1.0" points="-0.10158,-0.36891 -0.21932,-0.33324 -0.19827,-0.29426" stroke="black" stroke-width="0.001" /><polygon fill="rgb(72,72,0)" fill-opacity="1.0" points="-0.38725,-0.01506 -0.3803,0.11685 -0.33857,0.08594" stroke="black" stroke-width="0.001" /><polygon fill="rgb(219,219,0)" fill-opacity="1.0" points="0.39283,0.04814 0.3788,-0.08109 0.35466,0.008" stroke="black" stroke-width="0.001" /><polygon fill="rgb(0,0,0)" fill-opacity="1.0" points="-0.3144,0.20886 -0.25891,0.30324 -0.2105,0.28282" stroke="black" stroke-width="0.001" /><polygon fill="rgb(234,234,0)" fill-opacity="1.0" points="0.23466,-0.30581 0.12194,-0.37379 0.14532,-0.31788" stroke="black" stroke-width="0.001" /><polygon fill="rgb(60,60,0)" fill-opacity="1.0" points="-0.33857,0.08594 -0.3803,0.11685 -0.3144,0.20886" stroke="black" stroke-width="0.001" /><polygon fill="rgb(214,214,0)" fill-opacity="1.0" points="0.39283,0.04814 0.35466,0.008 0.34816,0.14223" stroke="black" stroke-width="0.001" /><polygon fill="rgb(119,119,0)" fill-opacity="1.0" points="-0.02133,0.38209 0.11529,0.37216 0.06035,0.33689" stroke="black" stroke-width="0.001" /><polygon fill="rgb(90,90,0)" fill-opacity="1.0" points="-0.07994,0.3278 -0.14055,0.36436 -0.02133,0.38209" stroke="black" stroke-width="0.001" /><polygon fill="rgb(233,233,0)" fill-opacity="1.0" points="0.12194,-0.37379 0.01894,-0.36961 0.14532,-0.31788" stroke="black" stroke-width="0.001" /><polygon fill="rgb(237,237,0)" fill-opacity="1.0" points="0.3788,-0.08109 0.32404,-0.20416 0.31198,-0.10608" stroke="black" stroke-width="0.001" /><polygon fill="rgb(197,197,0)" fill-opacity="1.0" points="0.29705,0.24972 0.34816,0.14223 0.25498,0.21626" stroke="black" stroke-width="0.001" /><polygon fill="rgb(241,241,0)" fill-opacity="1.0" points="0.32404,-0.20416 0.23466,-0.30581 0.23246,-0.22992" stroke="black" stroke-width="0.001" /><polygon fill="rgb(133,133,0)" fill-opacity="1.0" points="-0.32588,-0.05104 -0.3541,-0.13074 -0.38725,-0.01506" stroke="black" stroke-width="0.001" /><polygon fill="rgb(152,152,0)" fill-opacity="1.0" points="0.06035,0.33689 0.11529,0.37216 0.1915,0.30915" stroke="black" stroke-width="0.001" /><polygon fill="rgb(163,163,0)" fill-opacity="1.0" points="-0.27686,-0.18377 -0.28937,-0.25302 -0.3541,-0.13074" stroke="black" stroke-width="0.001" /><polygon fill="rgb(181,181,0)" fill-opacity="1.0" points="0.1915,0.30915 0.29705,0.24972 0.25498,0.21626" stroke="black" stroke-width="0.001" /><polygon fill="rgb(97,97,0)" fill-opacity="1.0" points="-0.2105,0.28282 -0.14055,0.36436 -0.07994,0.3278" stroke="black" stroke-width="0.001" /><polygon fill="rgb(223,223,0)" fill-opacity="1.0" points="0.01894,-0.36961 -0.10158,-0.36891 -0.08551,-0.31196" stroke="black" stroke-width="0.001" /><polygon fill="rgb(235,235,0)" fill-opacity="1.0" points="0.35466,0.008 0.3788,-0.08109 0.31198,-0.10608" stroke="black" stroke-width="0.001" /><polygon fill="rgb(188,188,0)" fill-opacity="1.0" points="-0.27686,-0.18377 -0.19827,-0.29426 -0.28937,-0.25302" stroke="black" stroke-width="0.001" /><polygon fill="rgb(129,129,0)" fill-opacity="1.0" points="-0.32588,-0.05104 -0.38725,-0.01506 -0.33857,0.08594" stroke="black" stroke-width="0.001" /><polygon fill="rgb(244,244,0)" fill-opacity="1.0" points="0.23246,-0.22992 0.23466,-0.30581 0.14532,-0.31788" stroke="black" stroke-width="0.001" /><polygon fill="rgb(212,212,0)" fill-opacity="1.0" points="-0.08551,-0.31196 -0.10158,-0.36891 -0.19827,-0.29426" stroke="black" stroke-width="0.001" /><polygon fill="rgb(135,135,0)" fill-opacity="1.0" points="-0.07994,0.3278 -0.02133,0.38209 0.06035,0.33689" stroke="black" stroke-width="0.001" /><polygon fill="rgb(105,105,0)" fill-opacity="1.0" points="-0.26174,0.17766 -0.3144,0.20886 -0.2105,0.28282" stroke="black" stroke-width="0.001" /><polygon fill="rgb(221,221,0)" fill-opacity="1.0" points="0.34816,0.14223 0.35466,0.008 0.29801,0.10148" stroke="black" stroke-width="0.001" /><polygon fill="rgb(113,113,0)" fill-opacity="1.0" points="-0.26174,0.17766 -0.33857,0.08594 -0.3144,0.20886" stroke="black" stroke-width="0.001" /><polygon fill="rgb(245,245,0)" fill-opacity="1.0" points="0.32404,-0.20416 0.23246,-0.22992 0.31198,-0.10608" stroke="black" stroke-width="0.001" /><polygon fill="rgb(169,169,0)" fill-opacity="1.0" points="-0.32588,-0.05104 -0.27686,-0.18377 -0.3541,-0.13074" stroke="black" stroke-width="0.001" /><polygon fill="rgb(211,211,0)" fill-opacity="1.0" points="0.25498,0.21626 0.34816,0.14223 0.29801,0.10148" stroke="black" stroke-width="0.001" /><polygon fill="rgb(239,239,0)" fill-opacity="1.0" points="0.14532,-0.31788 0.01894,-0.36961 0.03797,-0.30284" stroke="black" stroke-width="0.001" /><polygon fill="rgb(233,233,0)" fill-opacity="1.0" points="0.03797,-0.30284 0.01894,-0.36961 -0.08551,-0.31196" stroke="black" stroke-width="0.001" /><polygon fill="rgb(180,180,0)" fill-opacity="1.0" points="0.06035,0.33689 0.1915,0.30915 0.14381,0.24077" stroke="black" stroke-width="0.001" /><polygon fill="rgb(194,194,0)" fill-opacity="1.0" points="0.14381,0.24077 0.1915,0.30915 0.25498,0.21626" stroke="black" stroke-width="0.001" /><polygon fill="rgb(139,139,0)" fill-opacity="1.0" points="-0.13545,0.24073 -0.2105,0.28282 -0.07994,0.3278" stroke="black" stroke-width="0.001" /><polygon fill="rgb(208,208,0)" fill-opacity="1.0" points="-0.1523,-0.21762 -0.19827,-0.29426 -0.27686,-0.18377" stroke="black" stroke-width="0.001" /><polygon fill="rgb(241,241,0)" fill-opacity="1.0" points="0.35466,0.008 0.31198,-0.10608 0.26304,-0.00854" stroke="black" stroke-width="0.001" /><polygon fill="rgb(158,158,0)" fill-opacity="1.0" points="-0.26684,0.03834 -0.32588,-0.05104 -0.33857,0.08594" stroke="black" stroke-width="0.001" /><polygon fill="rgb(219,219,0)" fill-opacity="1.0" points="-0.1523,-0.21762 -0.08551,-0.31196 -0.19827,-0.29426" stroke="black" stroke-width="0.001" /><polygon fill="rgb(148,148,0)" fill-opacity="1.0" points="-0.26174,0.17766 -0.2105,0.28282 -0.13545,0.24073" stroke="black" stroke-width="0.001" /><polygon fill="rgb(237,237,0)" fill-opacity="1.0" points="0.29801,0.10148 0.35466,0.008 0.26304,-0.00854" stroke="black" stroke-width="0.001" /><polygon fill="rgb(250,250,0)" fill-opacity="1.0" points="0.23246,-0.22992 0.14532,-0.31788 0.12515,-0.22291" stroke="black" stroke-width="0.001" /><polygon fill="rgb(167,167,0)" fill-opacity="1.0" points="-0.07994,0.3278 0.06035,0.33689 -0.00477,0.25024" stroke="black" stroke-width="0.001" /><polygon fill="rgb(157,157,0)" fill-opacity="1.0" points="-0.26684,0.03834 -0.33857,0.08594 -0.26174,0.17766" stroke="black" stroke-width="0.001" /><polygon fill="rgb(249,249,0)" fill-opacity="1.0" points="0.12515,-0.22291 0.14532,-0.31788 0.03797,-0.30284" stroke="black" stroke-width="0.001" /><polygon fill="rgb(191,191,0)" fill-opacity="1.0" points="-0.22147,-0.08431 -0.27686,-0.18377 -0.32588,-0.05104" stroke="black" stroke-width="0.001" /><polygon fill="rgb(251,251,1)" fill-opacity="1.0" points="0.31198,-0.10608 0.23246,-0.22992 0.20324,-0.12102" stroke="black" stroke-width="0.001" /><polygon fill="rgb(222,222,0)" fill-opacity="1.0" points="0.19816,0.12527 0.25498,0.21626 0.29801,0.10148" stroke="black" stroke-width="0.001" /><polygon fill="rgb(188,188,0)" fill-opacity="1.0" points="0.06035,0.33689 0.14381,0.24077 -0.00477,0.25024" stroke="black" stroke-width="0.001" /><polygon fill="rgb(171,171,0)" fill-opacity="1.0" points="-0.13545,0.24073 -0.07994,0.3278 -0.00477,0.25024" stroke="black" stroke-width="0.001" /><polygon fill="rgb(240,240,0)" fill-opacity="1.0" points="-0.02317,-0.21809 0.03797,-0.30284 -0.08551,-0.31196" stroke="black" stroke-width="0.001" /><polygon fill="rgb(216,216,0)" fill-opacity="1.0" points="0.14381,0.24077 0.25498,0.21626 0.19816,0.12527" stroke="black" stroke-width="0.001" /><polygon fill="rgb(188,188,0)" fill-opacity="1.0" points="-0.26684,0.03834 -0.22147,-0.08431 -0.32588,-0.05104" stroke="black" stroke-width="0.001" /><polygon fill="rgb(210,210,0)" fill-opacity="1.0" points="-0.1523,-0.21762 -0.27686,-0.18377 -0.22147,-0.08431" stroke="black" stroke-width="0.001" /><polygon fill="rgb(250,250,3)" fill-opacity="1.0" points="0.26304,-0.00854 0.31198,-0.10608 0.20324,-0.12102" stroke="black" stroke-width="0.001" /><polygon fill="rgb(254,254,9)" fill-opacity="1.0" points="0.20324,-0.12102 0.23246,-0.22992 0.12515,-0.22291" stroke="black" stroke-width="0.001" /><polygon fill="rgb(169,169,0)" fill-opacity="1.0" points="-0.18128,0.12795 -0.26174,0.17766 -0.13545,0.24073" stroke="black" stroke-width="0.001" /><polygon fill="rgb(235,235,0)" fill-opacity="1.0" points="-0.02317,-0.21809 -0.08551,-0.31196 -0.1523,-0.21762" stroke="black" stroke-width="0.001" /><polygon fill="rgb(237,237,0)" fill-opacity="1.0" points="0.19816,0.12527 0.29801,0.10148 0.26304,-0.00854" stroke="black" stroke-width="0.001" /><polygon fill="rgb(173,173,0)" fill-opacity="1.0" points="-0.18128,0.12795 -0.26684,0.03834 -0.26174,0.17766" stroke="black" stroke-width="0.001" /><polygon fill="rgb(249,249,9)" fill-opacity="1.0" points="-0.02317,-0.21809 0.12515,-0.22291 0.03797,-0.30284" stroke="black" stroke-width="0.001" /><polygon fill="rgb(210,210,0)" fill-opacity="1.0" points="-0.00477,0.25024 0.14381,0.24077 0.07543,0.13866" stroke="black" stroke-width="0.001" /><polygon fill="rgb(195,195,0)" fill-opacity="1.0" points="-0.13545,0.24073 -0.00477,0.25024 -0.05631,0.1396" stroke="black" stroke-width="0.001" /><polygon fill="rgb(222,222,0)" fill-opacity="1.0" points="0.07543,0.13866 0.14381,0.24077 0.19816,0.12527" stroke="black" stroke-width="0.001" /><polygon fill="rgb(205,205,0)" fill-opacity="1.0" points="-0.13985,0.0106 -0.22147,-0.08431 -0.26684,0.03834" stroke="black" stroke-width="0.001" /><polygon fill="rgb(195,195,0)" fill-opacity="1.0" points="-0.18128,0.12795 -0.13545,0.24073 -0.05631,0.1396" stroke="black" stroke-width="0.001" /><polygon fill="rgb(253,253,44)" fill-opacity="1.0" points="0.14853,0.00821 0.26304,-0.00854 0.20324,-0.12102" stroke="black" stroke-width="0.001" /><polygon fill="rgb(225,225,0)" fill-opacity="1.0" points="-0.08494,-0.10958 -0.1523,-0.21762 -0.22147,-0.08431" stroke="black" stroke-width="0.001" /><polygon fill="rgb(242,242,6)" fill-opacity="1.0" points="0.19816,0.12527 0.26304,-0.00854 0.14853,0.00821" stroke="black" stroke-width="0.001" /><polygon fill="rgb(201,201,0)" fill-opacity="1.0" points="-0.18128,0.12795 -0.13985,0.0106 -0.26684,0.03834" stroke="black" stroke-width="0.001" /><polygon fill="rgb(255,255,115)" fill-opacity="1.0" points="0.06431,-0.1225 0.20324,-0.12102 0.12515,-0.22291" stroke="black" stroke-width="0.001" /><polygon fill="rgb(236,236,2)" fill-opacity="1.0" points="-0.08494,-0.10958 -0.02317,-0.21809 -0.1523,-0.21762" stroke="black" stroke-width="0.001" /><polygon fill="rgb(255,255,56)" fill-opacity="1.0" points="0.06431,-0.1225 0.12515,-0.22291 -0.02317,-0.21809" stroke="black" stroke-width="0.001" /><polygon fill="rgb(213,213,0)" fill-opacity="1.0" points="-0.05631,0.1396 -0.00477,0.25024 0.07543,0.13866" stroke="black" stroke-width="0.001" /><polygon fill="rgb(237,237,7)" fill-opacity="1.0" points="0.07543,0.13866 0.19816,0.12527 0.14853,0.00821" stroke="black" stroke-width="0.001" /><polygon fill="rgb(255,255,186)" fill-opacity="1.0" points="0.14853,0.00821 0.20324,-0.12102 0.06431,-0.1225" stroke="black" stroke-width="0.001" /><polygon fill="rgb(224,224,0)" fill-opacity="1.0" points="-0.13985,0.0106 -0.08494,-0.10958 -0.22147,-0.08431" stroke="black" stroke-width="0.001" /><polygon fill="rgb(212,212,0)" fill-opacity="1.0" points="-0.18128,0.12795 -0.05631,0.1396 -0.13985,0.0106" stroke="black" stroke-width="0.001" /><polygon fill="rgb(252,252,64)" fill-opacity="1.0" points="-0.08494,-0.10958 0.06431,-0.1225 -0.02317,-0.21809" stroke="black" stroke-width="0.001" /><polygon fill="rgb(229,229,4)" fill-opacity="1.0" points="-0.05631,0.1396 0.07543,0.13866 -0.00493,0.01563" stroke="black" stroke-width="0.001" /><polygon fill="rgb(240,240,35)" fill-opacity="1.0" points="0.07543,0.13866 0.14853,0.00821 -0.00493,0.01563" stroke="black" stroke-width="0.001" /><polygon fill="rgb(224,224,1)" fill-opacity="1.0" points="-0.05631,0.1396 -0.00493,0.01563 -0.13985,0.0106" stroke="black" stroke-width="0.001" /><polygon fill="rgb(255,255,187)" fill-opacity="1.0" points="0.14853,0.00821 0.06431,-0.1225 -0.00493,0.01563" stroke="black" stroke-width="0.001" /><polygon fill="rgb(234,234,14)" fill-opacity="1.0" points="-0.13985,0.0106 -0.00493,0.01563 -0.08494,-0.10958" stroke="black" stroke-width="0.001" /><polygon fill="rgb(255,255,104)" fill-opacity="1.0" points="-0.00493,0.01563 0.06431,-0.1225 -0.08494,-0.10958" stroke="black" stroke-width="0.001" /></g></svg>