<svg version="1.1" xmlns="http://www.w3.org/2000/svg" viewBox="0 0 829 405" width="829" height="405" filter="invert(93%) hue-rotate(180deg)">
  <!-- svg-source:excalidraw -->
  
  <defs>
    <style class="style-fonts">
      @font-face {
        font-family: "Virgil";
        src: url("https://excalidraw.com/Virgil.woff2");
      }
      @font-face {
        font-family: "Cascadia";
        src: url("https://excalidraw.com/Cascadia.woff2");
      }
    </style>
    
  </defs>
  <g stroke-linecap="round" transform="translate(428 10) rotate(0 105 36)"><path d="M18 0 L192 0 L199.88 1.13 L205.5 4.5 L207.47 7.03 L209.72 13.78 L210 54 L208.88 61.88 L207.47 64.97 L202.97 69.47 L199.88 70.88 L192 72 L18 72 L10.13 70.88 L4.5 67.5 L2.53 64.97 L0.28 58.22 L0.28 13.78 L1.13 10.13 L4.5 4.5 L10.13 1.13 L18 0" stroke="none" stroke-width="0" fill="#b2f2bb"></path><path d="M18 0 M18 0 C66.76 0, 115.52 0, 192 0 M18 0 C80.71 0, 143.43 0, 192 0 M192 0 C204 0, 210 6, 210 18 M192 0 C204 0, 210 6, 210 18 M210 18 C210 25.73, 210 33.46, 210 54 M210 18 C210 26.22, 210 34.44, 210 54 M210 54 C210 66, 204 72, 192 72 M210 54 C210 66, 204 72, 192 72 M192 72 C124.4 72, 56.81 72, 18 72 M192 72 C148.61 72, 105.22 72, 18 72 M18 72 C6 72, 0 66, 0 54 M18 72 C6 72, 0 66, 0 54 M0 54 C0 41.11, 0 28.22, 0 18 M0 54 C0 45.01, 0 36.02, 0 18 M0 18 C0 6, 6 0, 18 0 M0 18 C0 6, 6 0, 18 0" stroke="#1e1e1e" stroke-width="1" fill="none"></path></g><g transform="translate(445.15833282470703 33.5) rotate(0 87.84166717529297 12.5)"><text x="87.84166717529297" y="0" font-family="Virgil, Segoe UI Emoji" font-size="20px" fill="#1e1e1e" text-anchor="middle" style="white-space: pre;" direction="ltr" dominant-baseline="text-before-edge">Computer graphics</text></g><g stroke-linecap="round" transform="translate(609 163) rotate(0 105 36)"><path d="M18 0 L192 0 L199.88 1.13 L205.5 4.5 L207.47 7.03 L209.72 13.78 L210 54 L208.88 61.88 L207.47 64.97 L202.97 69.47 L199.88 70.88 L192 72 L18 72 L10.13 70.88 L4.5 67.5 L2.53 64.97 L0.28 58.22 L0.28 13.78 L1.13 10.13 L4.5 4.5 L10.13 1.13 L18 0" stroke="none" stroke-width="0" fill="#ffc9c9"></path><path d="M18 0 M18 0 C73.99 0, 129.98 0, 192 0 M18 0 C80.08 0, 142.16 0, 192 0 M192 0 C204 0, 210 6, 210 18 M192 0 C204 0, 210 6, 210 18 M210 18 C210 25.98, 210 33.95, 210 54 M210 18 C210 25.23, 210 32.46, 210 54 M210 54 C210 66, 204 72, 192 72 M210 54 C210 66, 204 72, 192 72 M192 72 C131.19 72, 70.39 72, 18 72 M192 72 C157.11 72, 122.21 72, 18 72 M18 72 C6 72, 0 66, 0 54 M18 72 C6 72, 0 66, 0 54 M0 54 C0 41.5, 0 29.01, 0 18 M0 54 C0 43.21, 0 32.41, 0 18 M0 18 C0 6, 6 0, 18 0 M0 18 C0 6, 6 0, 18 0" stroke="#1e1e1e" stroke-width="1" fill="none"></path></g><g transform="translate(635.3083343505859 186.5) rotate(0 78.69166564941406 12.5)"><text x="78.69166564941406" y="0" font-family="Virgil, Segoe UI Emoji" font-size="20px" fill="#1e1e1e" text-anchor="middle" style="white-space: pre;" direction="ltr" dominant-baseline="text-before-edge">Offline rendering</text></g><g stroke-linecap="round" transform="translate(251 162) rotate(0 105 36)"><path d="M18 0 L192 0 L199.88 1.13 L205.5 4.5 L207.47 7.03 L209.72 13.78 L210 54 L208.88 61.88 L207.47 64.97 L202.97 69.47 L199.88 70.88 L192 72 L18 72 L10.13 70.88 L4.5 67.5 L2.53 64.97 L0.28 58.22 L0.28 13.78 L1.13 10.13 L4.5 4.5 L10.13 1.13 L18 0" stroke="none" stroke-width="0" fill="#b2f2bb"></path><path d="M18 0 M18 0 C77.16 0, 136.33 0, 192 0 M18 0 C80.49 0, 142.98 0, 192 0 M192 0 C204 0, 210 6, 210 18 M192 0 C204 0, 210 6, 210 18 M210 18 C210 30.55, 210 43.1, 210 54 M210 18 C210 26.6, 210 35.2, 210 54 M210 54 C210 66, 204 72, 192 72 M210 54 C210 66, 204 72, 192 72 M192 72 C139.88 72, 87.77 72, 18 72 M192 72 C126.1 72, 60.2 72, 18 72 M18 72 C6 72, 0 66, 0 54 M18 72 C6 72, 0 66, 0 54 M0 54 C0 46.02, 0 38.05, 0 18 M0 54 C0 40.73, 0 27.47, 0 18 M0 18 C0 6, 6 0, 18 0 M0 18 C0 6, 6 0, 18 0" stroke="#1e1e1e" stroke-width="1" fill="none"></path></g><g transform="translate(263.94166564941406 185.5) rotate(0 92.05833435058594 12.5)"><text x="92.05833435058594" y="0" font-family="Virgil, Segoe UI Emoji" font-size="20px" fill="#1e1e1e" text-anchor="middle" style="white-space: pre;" direction="ltr" dominant-baseline="text-before-edge">Real-time rendering</text></g><g stroke-linecap="round" transform="translate(252 323) rotate(0 105 36)"><path d="M18 0 L192 0 L199.88 1.13 L205.5 4.5 L207.47 7.03 L209.72 13.78 L210 54 L208.88 61.88 L207.47 64.97 L202.97 69.47 L199.88 70.88 L192 72 L18 72 L10.13 70.88 L4.5 67.5 L2.53 64.97 L0.28 58.22 L0.28 13.78 L1.13 10.13 L4.5 4.5 L10.13 1.13 L18 0" stroke="none" stroke-width="0" fill="#b2f2bb"></path><path d="M18 0 M18 0 C78.66 0, 139.33 0, 192 0 M18 0 C87.12 0, 156.24 0, 192 0 M192 0 C204 0, 210 6, 210 18 M192 0 C204 0, 210 6, 210 18 M210 18 C210 27.07, 210 36.14, 210 54 M210 18 C210 25.37, 210 32.73, 210 54 M210 54 C210 66, 204 72, 192 72 M210 54 C210 66, 204 72, 192 72 M192 72 C145.61 72, 99.23 72, 18 72 M192 72 C136.72 72, 81.45 72, 18 72 M18 72 C6 72, 0 66, 0 54 M18 72 C6 72, 0 66, 0 54 M0 54 C0 40.34, 0 26.69, 0 18 M0 54 C0 40.63, 0 27.27, 0 18 M0 18 C0 6, 6 0, 18 0 M0 18 C0 6, 6 0, 18 0" stroke="#1e1e1e" stroke-width="1" fill="none"></path></g><g transform="translate(290.0749969482422 346.5) rotate(0 66.92500305175781 12.5)"><text x="66.92500305175781" y="0" font-family="Virgil, Segoe UI Emoji" font-size="20px" fill="#1e1e1e" text-anchor="middle" style="white-space: pre;" direction="ltr" dominant-baseline="text-before-edge">Rasterization</text></g><g stroke-linecap="round" transform="translate(495 323) rotate(0 105 36)"><path d="M18 0 L192 0 L199.88 1.13 L205.5 4.5 L207.47 7.03 L209.72 13.78 L210 54 L208.88 61.88 L207.47 64.97 L202.97 69.47 L199.88 70.88 L192 72 L18 72 L10.13 70.88 L4.5 67.5 L2.53 64.97 L0.28 58.22 L0.28 13.78 L1.13 10.13 L4.5 4.5 L10.13 1.13 L18 0" stroke="none" stroke-width="0" fill="#ffc9c9"></path><path d="M18 0 M18 0 C87.04 0, 156.08 0, 192 0 M18 0 C67.35 0, 116.69 0, 192 0 M192 0 C204 0, 210 6, 210 18 M192 0 C204 0, 210 6, 210 18 M210 18 C210 31.3, 210 44.61, 210 54 M210 18 C210 32.18, 210 46.36, 210 54 M210 54 C210 66, 204 72, 192 72 M210 54 C210 66, 204 72, 192 72 M192 72 C127.05 72, 62.09 72, 18 72 M192 72 C139.28 72, 86.56 72, 18 72 M18 72 C6 72, 0 66, 0 54 M18 72 C6 72, 0 66, 0 54 M0 54 C0 45.37, 0 36.74, 0 18 M0 54 C0 44.13, 0 34.26, 0 18 M0 18 C0 6, 6 0, 18 0 M0 18 C0 6, 6 0, 18 0" stroke="#1e1e1e" stroke-width="1" fill="none"></path></g><g transform="translate(543.1083335876465 346.5) rotate(0 56.891666412353516 12.5)"><text x="56.891666412353516" y="0" font-family="Virgil, Segoe UI Emoji" font-size="20px" fill="#1e1e1e" text-anchor="middle" style="white-space: pre;" direction="ltr" dominant-baseline="text-before-edge">Voxel engine</text></g><g stroke-linecap="round" transform="translate(10 323) rotate(0 105 36)"><path d="M18 0 L192 0 L199.88 1.13 L205.5 4.5 L207.47 7.03 L209.72 13.78 L210 54 L208.88 61.88 L207.47 64.97 L202.97 69.47 L199.88 70.88 L192 72 L18 72 L10.13 70.88 L4.5 67.5 L2.53 64.97 L0.28 58.22 L0.28 13.78 L1.13 10.13 L4.5 4.5 L10.13 1.13 L18 0" stroke="none" stroke-width="0" fill="#ffc9c9"></path><path d="M18 0 M18 0 C78.96 0, 139.92 0, 192 0 M18 0 C58.08 0, 98.17 0, 192 0 M192 0 C204 0, 210 6, 210 18 M192 0 C204 0, 210 6, 210 18 M210 18 C210 26.68, 210 35.35, 210 54 M210 18 C210 28.71, 210 39.42, 210 54 M210 54 C210 66, 204 72, 192 72 M210 54 C210 66, 204 72, 192 72 M192 72 C135.45 72, 78.9 72, 18 72 M192 72 C122.7 72, 53.4 72, 18 72 M18 72 C6 72, 0 66, 0 54 M18 72 C6 72, 0 66, 0 54 M0 54 C0 39.98, 0 25.96, 0 18 M0 54 C0 44.61, 0 35.21, 0 18 M0 18 C0 6, 6 0, 18 0 M0 18 C0 6, 6 0, 18 0" stroke="#1e1e1e" stroke-width="1" fill="none"></path></g><g transform="translate(57.224998474121094 346.5) rotate(0 57.775001525878906 12.5)"><text x="57.775001525878906" y="0" font-family="Virgil, Segoe UI Emoji" font-size="20px" fill="#1e1e1e" text-anchor="middle" style="white-space: pre;" direction="ltr" dominant-baseline="text-before-edge">Ray casting</text></g><g stroke-linecap="round"><g transform="translate(487 90) rotate(0 -64.5 32)"><path d="M0 0 C-21.5 10.67, -107.5 53.33, -129 64 M0 0 C-21.5 10.67, -107.5 53.33, -129 64" stroke="#1e1e1e" stroke-width="1" fill="none"></path></g><g transform="translate(487 90) rotate(0 -64.5 32)"><path d="M-108.31 42.28 C-112.54 46.72, -116.77 51.17, -129 64 M-108.31 42.28 C-115.06 49.37, -121.81 56.45, -129 64" stroke="#1e1e1e" stroke-width="1" fill="none"></path></g><g transform="translate(487 90) rotate(0 -64.5 32)"><path d="M-99.19 60.66 C-105.28 61.35, -111.38 62.03, -129 64 M-99.19 60.66 C-108.91 61.75, -118.64 62.84, -129 64" stroke="#1e1e1e" stroke-width="1" fill="none"></path></g></g><mask></mask><g stroke-linecap="round"><g transform="translate(580 90) rotate(0 67.5 32.5)"><path d="M0 0 C22.5 10.83, 112.5 54.17, 135 65 M0 0 C22.5 10.83, 112.5 54.17, 135 65" stroke="#1e1e1e" stroke-width="1" fill="none"></path></g><g transform="translate(580 90) rotate(0 67.5 32.5)"><path d="M105.15 62.02 C113.99 62.9, 122.83 63.78, 135 65 M105.15 62.02 C111.52 62.65, 117.9 63.29, 135 65" stroke="#1e1e1e" stroke-width="1" fill="none"></path></g><g transform="translate(580 90) rotate(0 67.5 32.5)"><path d="M114.05 43.53 C120.26 49.89, 126.46 56.25, 135 65 M114.05 43.53 C118.52 48.11, 123 52.7, 135 65" stroke="#1e1e1e" stroke-width="1" fill="none"></path></g></g><mask></mask><g stroke-linecap="round"><g transform="translate(358 240) rotate(0 0.5 35.5)"><path d="M0 0 C0.17 11.83, 0.83 59.17, 1 71 M0 0 C0.17 11.83, 0.83 59.17, 1 71" stroke="#1e1e1e" stroke-width="1" fill="none"></path></g><g transform="translate(358 240) rotate(0 0.5 35.5)"><path d="M-9.66 42.96 C-5.66 53.48, -1.66 64.01, 1 71 M-9.66 42.96 C-6.97 50.03, -4.28 57.1, 1 71" stroke="#1e1e1e" stroke-width="1" fill="none"></path></g><g transform="translate(358 240) rotate(0 0.5 35.5)"><path d="M10.86 42.67 C7.16 53.3, 3.46 63.93, 1 71 M10.86 42.67 C8.38 49.81, 5.89 56.95, 1 71" stroke="#1e1e1e" stroke-width="1" fill="none"></path></g></g><mask></mask><g stroke-linecap="round"><g transform="translate(412 246) rotate(0 95 33)"><path d="M0 0 C31.67 11, 158.33 55, 190 66 M0 0 C31.67 11, 158.33 55, 190 66" stroke="#1e1e1e" stroke-width="1" fill="none"></path></g><g transform="translate(412 246) rotate(0 95 33)"><path d="M160 66.44 C166.55 66.35, 173.09 66.25, 190 66 M160 66.44 C166.35 66.35, 172.69 66.26, 190 66" stroke="#1e1e1e" stroke-width="1" fill="none"></path></g><g transform="translate(412 246) rotate(0 95 33)"><path d="M166.74 47.06 C171.81 51.19, 176.89 55.32, 190 66 M166.74 47.06 C171.66 51.06, 176.58 55.07, 190 66" stroke="#1e1e1e" stroke-width="1" fill="none"></path></g></g><mask></mask><g stroke-linecap="round"><g transform="translate(303 244) rotate(0 -88 34.5)"><path d="M0 0 C-29.33 11.5, -146.67 57.5, -176 69 M0 0 C-29.33 11.5, -146.67 57.5, -176 69" stroke="#1e1e1e" stroke-width="1" fill="none"></path></g><g transform="translate(303 244) rotate(0 -88 34.5)"><path d="M-153.5 49.16 C-160.31 55.16, -167.12 61.17, -176 69 M-153.5 49.16 C-159.48 54.43, -165.45 59.7, -176 69" stroke="#1e1e1e" stroke-width="1" fill="none"></path></g><g transform="translate(303 244) rotate(0 -88 34.5)"><path d="M-146.01 68.26 C-155.09 68.49, -164.17 68.71, -176 69 M-146.01 68.26 C-153.98 68.46, -161.94 68.65, -176 69" stroke="#1e1e1e" stroke-width="1" fill="none"></path></g></g><mask></mask></svg>