<svg version="1.1" xmlns="http://www.w3.org/2000/svg" viewBox="0 0 829 543" width="829" height="543" filter="invert(93%) hue-rotate(180deg)">
  <!-- svg-source:excalidraw -->
  
  <defs>
    <style class="style-fonts">
      @font-face {
        font-family: "Virgil";
        src: url("https://excalidraw.com/Virgil.woff2");
      }
      @font-face {
        font-family: "Cascadia";
        src: url("https://excalidraw.com/Cascadia.woff2");
      }
      @font-face {
        font-family: "Assistant";
        src: url("https://excalidraw.com/Assistant-Regular.woff2");
      }
    </style>
    
  </defs>
  <g stroke-linecap="round" transform="translate(428 10) rotate(0 105 36)"><path d="M18 0 C85.6 0, 153.19 0, 192 0 C204 0, 210 6, 210 18 C210 25.72, 210 33.44, 210 54 C210 66, 204 72, 192 72 C129.69 72, 67.38 72, 18 72 C6 72, 0 66, 0 54 C0 39.92, 0 25.83, 0 18 C0 6, 6 0, 18 0" stroke="none" stroke-width="0" fill="#b2f2bb"></path><path d="M18 0 C62.54 0, 107.09 0, 192 0 M18 0 C80.13 0, 142.25 0, 192 0 M192 0 C204 0, 210 6, 210 18 M192 0 C204 0, 210 6, 210 18 M210 18 C210 28.34, 210 38.68, 210 54 M210 18 C210 28.69, 210 39.38, 210 54 M210 54 C210 66, 204 72, 192 72 M210 54 C210 66, 204 72, 192 72 M192 72 C143.24 72, 94.48 72, 18 72 M192 72 C129.29 72, 66.57 72, 18 72 M18 72 C6 72, 0 66, 0 54 M18 72 C6 72, 0 66, 0 54 M0 54 C0 46.27, 0 38.54, 0 18 M0 54 C0 45.78, 0 37.56, 0 18 M0 18 C0 6, 6 0, 18 0 M0 18 C0 6, 6 0, 18 0" stroke="#1e1e1e" stroke-width="1" fill="none"></path></g><g transform="translate(445.15833282470703 33.5) rotate(0 87.84166717529297 12.5)"><text x="87.84166717529297" y="0" font-family="Virgil, Segoe UI Emoji" font-size="20px" fill="#1e1e1e" text-anchor="middle" style="white-space: pre;" direction="ltr" dominant-baseline="text-before-edge">Computer graphics</text></g><g stroke-linecap="round" transform="translate(609 163) rotate(0 105 36)"><path d="M18 0 C85.7 0, 153.4 0, 192 0 M18 0 C62.77 0, 107.54 0, 192 0 M192 0 C204 0, 210 6, 210 18 M192 0 C204 0, 210 6, 210 18 M210 18 C210 25.93, 210 33.85, 210 54 M210 18 C210 27.08, 210 36.15, 210 54 M210 54 C210 66, 204 72, 192 72 M210 54 C210 66, 204 72, 192 72 M192 72 C136.01 72, 80.02 72, 18 72 M192 72 C129.92 72, 67.84 72, 18 72 M18 72 C6 72, 0 66, 0 54 M18 72 C6 72, 0 66, 0 54 M0 54 C0 46.02, 0 38.05, 0 18 M0 54 C0 46.77, 0 39.54, 0 18 M0 18 C0 6, 6 0, 18 0 M0 18 C0 6, 6 0, 18 0" stroke="transparent" stroke-width="1" fill="none"></path></g><g transform="translate(635.3083343505859 186.5) rotate(0 78.69166564941406 12.5)"><text x="78.69166564941406" y="0" font-family="Virgil, Segoe UI Emoji" font-size="20px" fill="transparent" text-anchor="middle" style="white-space: pre;" direction="ltr" dominant-baseline="text-before-edge">Offline rendering</text></g><g stroke-linecap="round" transform="translate(251 162) rotate(0 105 36)"><path d="M18 0 C77.86 0, 137.73 0, 192 0 M18 0 C54.41 0, 90.81 0, 192 0 M192 0 C204 0, 210 6, 210 18 M192 0 C204 0, 210 6, 210 18 M210 18 C210 26.24, 210 34.48, 210 54 M210 18 C210 30.8, 210 43.61, 210 54 M210 54 C210 66, 204 72, 192 72 M210 54 C210 66, 204 72, 192 72 M192 72 C132.84 72, 73.67 72, 18 72 M192 72 C129.51 72, 67.02 72, 18 72 M18 72 C6 72, 0 66, 0 54 M18 72 C6 72, 0 66, 0 54 M0 54 C0 41.45, 0 28.9, 0 18 M0 54 C0 45.4, 0 36.8, 0 18 M0 18 C0 6, 6 0, 18 0 M0 18 C0 6, 6 0, 18 0" stroke="transparent" stroke-width="1" fill="none"></path></g><g transform="translate(263.94166564941406 185.5) rotate(0 92.05833435058594 12.5)"><text x="92.05833435058594" y="0" font-family="Virgil, Segoe UI Emoji" font-size="20px" fill="transparent" text-anchor="middle" style="white-space: pre;" direction="ltr" dominant-baseline="text-before-edge">Real-time rendering</text></g><g stroke-linecap="round" transform="translate(252 323) rotate(0 105 36)"><path d="M18 0 C75.07 0, 132.13 0, 192 0 M18 0 C77.29 0, 136.59 0, 192 0 M192 0 C204 0, 210 6, 210 18 M192 0 C204 0, 210 6, 210 18 M210 18 C210 30.16, 210 42.32, 210 54 M210 18 C210 28.04, 210 38.07, 210 54 M210 54 C210 66, 204 72, 192 72 M210 54 C210 66, 204 72, 192 72 M192 72 C131.34 72, 70.67 72, 18 72 M192 72 C122.88 72, 53.76 72, 18 72 M18 72 C6 72, 0 66, 0 54 M18 72 C6 72, 0 66, 0 54 M0 54 C0 44.93, 0 35.86, 0 18 M0 54 C0 46.63, 0 39.27, 0 18 M0 18 C0 6, 6 0, 18 0 M0 18 C0 6, 6 0, 18 0" stroke="transparent" stroke-width="1" fill="none"></path></g><g transform="translate(290.0749969482422 346.5) rotate(0 66.92500305175781 12.5)"><text x="66.92500305175781" y="0" font-family="Virgil, Segoe UI Emoji" font-size="20px" fill="transparent" text-anchor="middle" style="white-space: pre;" direction="ltr" dominant-baseline="text-before-edge">Rasterization</text></g><g stroke-linecap="round" transform="translate(495 323) rotate(0 105 36)"><path d="M18 0 C69.83 0, 121.66 0, 192 0 M18 0 C65.39 0, 112.77 0, 192 0 M192 0 C204 0, 210 6, 210 18 M192 0 C204 0, 210 6, 210 18 M210 18 C210 30.29, 210 42.57, 210 54 M210 18 C210 26.29, 210 34.58, 210 54 M210 54 C210 66, 204 72, 192 72 M210 54 C210 66, 204 72, 192 72 M192 72 C122.96 72, 53.92 72, 18 72 M192 72 C142.65 72, 93.31 72, 18 72 M18 72 C6 72, 0 66, 0 54 M18 72 C6 72, 0 66, 0 54 M0 54 C0 40.7, 0 27.39, 0 18 M0 54 C0 39.82, 0 25.64, 0 18 M0 18 C0 6, 6 0, 18 0 M0 18 C0 6, 6 0, 18 0" stroke="transparent" stroke-width="1" fill="none"></path></g><g transform="translate(543.1083335876465 346.5) rotate(0 56.891666412353516 12.5)"><text x="56.891666412353516" y="0" font-family="Virgil, Segoe UI Emoji" font-size="20px" fill="transparent" text-anchor="middle" style="white-space: pre;" direction="ltr" dominant-baseline="text-before-edge">Voxel engine</text></g><g stroke-linecap="round" transform="translate(10 323) rotate(0 105 36)"><path d="M18 0 C72.27 0, 126.53 0, 192 0 M18 0 C79.31 0, 140.62 0, 192 0 M192 0 C204 0, 210 6, 210 18 M192 0 C204 0, 210 6, 210 18 M210 18 C210 28.66, 210 39.33, 210 54 M210 18 C210 26.07, 210 34.15, 210 54 M210 54 C210 66, 204 72, 192 72 M210 54 C210 66, 204 72, 192 72 M192 72 C131.04 72, 70.08 72, 18 72 M192 72 C151.92 72, 111.83 72, 18 72 M18 72 C6 72, 0 66, 0 54 M18 72 C6 72, 0 66, 0 54 M0 54 C0 45.32, 0 36.65, 0 18 M0 54 C0 43.29, 0 32.58, 0 18 M0 18 C0 6, 6 0, 18 0 M0 18 C0 6, 6 0, 18 0" stroke="transparent" stroke-width="1" fill="none"></path></g><g transform="translate(57.224998474121094 346.5) rotate(0 57.775001525878906 12.5)"><text x="57.775001525878906" y="0" font-family="Virgil, Segoe UI Emoji" font-size="20px" fill="transparent" text-anchor="middle" style="white-space: pre;" direction="ltr" dominant-baseline="text-before-edge">Ray casting</text></g><g stroke-linecap="round"><g transform="translate(487 90) rotate(0 -64.5 32)"><path d="M0 0 C-21.5 10.67, -107.5 53.33, -129 64 M0 0 C-21.5 10.67, -107.5 53.33, -129 64" stroke="transparent" stroke-width="1" fill="none"></path></g><g transform="translate(487 90) rotate(0 -64.5 32)"><path d="M-111.76 45.9 C-115.28 49.6, -118.81 53.3, -129 64 M-111.76 45.9 C-115.5 49.83, -119.24 53.76, -129 64" stroke="transparent" stroke-width="1" fill="none"></path></g><g transform="translate(487 90) rotate(0 -64.5 32)"><path d="M-104.16 61.22 C-109.24 61.79, -114.32 62.36, -129 64 M-104.16 61.22 C-109.55 61.82, -114.94 62.43, -129 64" stroke="transparent" stroke-width="1" fill="none"></path></g></g><mask></mask><g stroke-linecap="round"><g transform="translate(580 90) rotate(0 67.5 32.5)"><path d="M0 0 C22.5 10.83, 112.5 54.17, 135 65 M0 0 C22.5 10.83, 112.5 54.17, 135 65" stroke="transparent" stroke-width="1" fill="none"></path></g><g transform="translate(580 90) rotate(0 67.5 32.5)"><path d="M110.12 62.51 C117.49 63.25, 124.86 63.99, 135 65 M110.12 62.51 C116.12 63.11, 122.13 63.71, 135 65" stroke="transparent" stroke-width="1" fill="none"></path></g><g transform="translate(580 90) rotate(0 67.5 32.5)"><path d="M117.54 47.1 C122.71 52.4, 127.88 57.71, 135 65 M117.54 47.1 C121.75 51.42, 125.96 55.74, 135 65" stroke="transparent" stroke-width="1" fill="none"></path></g></g><mask></mask><g stroke-linecap="round"><g transform="translate(359 240) rotate(0 0.5 35.5)"><path d="M0 0 C0.17 11.83, 0.83 59.17, 1 71 M0 0 C0.17 11.83, 0.83 59.17, 1 71" stroke="transparent" stroke-width="1" fill="none"></path></g><g transform="translate(359 240) rotate(0 0.5 35.5)"><path d="M-7.88 47.63 C-4.55 56.4, -1.21 65.17, 1 71 M-7.88 47.63 C-4.83 55.66, -1.77 63.7, 1 71" stroke="transparent" stroke-width="1" fill="none"></path></g><g transform="translate(359 240) rotate(0 0.5 35.5)"><path d="M9.22 47.39 C6.13 56.25, 3.05 65.11, 1 71 M9.22 47.39 C6.39 55.51, 3.57 63.62, 1 71" stroke="transparent" stroke-width="1" fill="none"></path></g></g><mask></mask><g stroke-linecap="round"><g transform="translate(412 246) rotate(0 95 33)"><path d="M0 0 C31.67 11, 158.33 55, 190 66 M0 0 C31.67 11, 158.33 55, 190 66" stroke="transparent" stroke-width="1" fill="none"></path></g><g transform="translate(412 246) rotate(0 95 33)"><path d="M165 66.37 C170.46 66.29, 175.91 66.21, 190 66 M165 66.37 C171.94 66.27, 178.87 66.16, 190 66" stroke="transparent" stroke-width="1" fill="none"></path></g><g transform="translate(412 246) rotate(0 95 33)"><path d="M170.61 50.21 C174.84 53.66, 179.07 57.1, 190 66 M170.61 50.21 C175.99 54.59, 181.37 58.97, 190 66" stroke="transparent" stroke-width="1" fill="none"></path></g></g><mask></mask><g stroke-linecap="round"><g transform="translate(303 244) rotate(0 -88 34.5)"><path d="M0 0 C-29.33 11.5, -146.67 57.5, -176 69 M0 0 C-29.33 11.5, -146.67 57.5, -176 69" stroke="transparent" stroke-width="1" fill="none"></path></g><g transform="translate(303 244) rotate(0 -88 34.5)"><path d="M-157.25 52.46 C-162.93 57.47, -168.6 62.48, -176 69 M-157.25 52.46 C-164.41 58.78, -171.57 65.09, -176 69" stroke="transparent" stroke-width="1" fill="none"></path></g><g transform="translate(303 244) rotate(0 -88 34.5)"><path d="M-151.01 68.39 C-158.57 68.57, -166.14 68.76, -176 69 M-151.01 68.39 C-160.55 68.62, -170.1 68.85, -176 69" stroke="transparent" stroke-width="1" fill="none"></path></g></g><mask></mask><g stroke-linecap="round" transform="translate(131.5 461) rotate(0 105 36)"><path d="M18 0 C82.27 0, 146.55 0, 192 0 M18 0 C61.5 0, 105 0, 192 0 M192 0 C204 0, 210 6, 210 18 M192 0 C204 0, 210 6, 210 18 M210 18 C210 31.97, 210 45.94, 210 54 M210 18 C210 25.79, 210 33.58, 210 54 M210 54 C210 66, 204 72, 192 72 M210 54 C210 66, 204 72, 192 72 M192 72 C152.56 72, 113.11 72, 18 72 M192 72 C137.24 72, 82.48 72, 18 72 M18 72 C6 72, 0 66, 0 54 M18 72 C6 72, 0 66, 0 54 M0 54 C0 41.48, 0 28.97, 0 18 M0 54 C0 44.85, 0 35.71, 0 18 M0 18 C0 6, 6 0, 18 0 M0 18 C0 6, 6 0, 18 0" stroke="transparent" stroke-width="1" fill="none"></path></g><g transform="translate(200.8499984741211 484.5) rotate(0 35.650001525878906 12.5)"><text x="35.650001525878906" y="0" font-family="Virgil, Segoe UI Emoji" font-size="20px" fill="transparent" text-anchor="middle" style="white-space: pre;" direction="ltr" dominant-baseline="text-before-edge">Lighting</text></g><g stroke-linecap="round" transform="translate(373.5 460) rotate(0 105 36)"><path d="M18 0 C85.56 0, 153.12 0, 192 0 M18 0 C86.64 0, 155.28 0, 192 0 M192 0 C204 0, 210 6, 210 18 M192 0 C204 0, 210 6, 210 18 M210 18 C210 28.42, 210 38.84, 210 54 M210 18 C210 31.75, 210 45.49, 210 54 M210 54 C210 66, 204 72, 192 72 M210 54 C210 66, 204 72, 192 72 M192 72 C145.03 72, 98.06 72, 18 72 M192 72 C149.06 72, 106.13 72, 18 72 M18 72 C6 72, 0 66, 0 54 M18 72 C6 72, 0 66, 0 54 M0 54 C0 41.71, 0 29.41, 0 18 M0 54 C0 40.98, 0 27.96, 0 18 M0 18 C0 6, 6 0, 18 0 M0 18 C0 6, 6 0, 18 0" stroke="transparent" stroke-width="1" fill="none"></path></g><g transform="translate(443.25 483.5) rotate(0 35.25 12.5)"><text x="35.25" y="0" font-family="Virgil, Segoe UI Emoji" font-size="20px" fill="transparent" text-anchor="middle" style="white-space: pre;" direction="ltr" dominant-baseline="text-before-edge">Shading</text></g><g stroke-linecap="round"><g transform="translate(307 405.5) rotate(0 -35.5 21.5)"><path d="M0 0 C-11.83 7.17, -59.17 35.83, -71 43 M0 0 C-11.83 7.17, -59.17 35.83, -71 43" stroke="transparent" stroke-width="1" fill="none"></path></g><g transform="translate(307 405.5) rotate(0 -35.5 21.5)"><path d="M-55.34 23.52 C-61.34 30.98, -67.34 38.45, -71 43 M-55.34 23.52 C-58.67 27.66, -62 31.81, -71 43" stroke="transparent" stroke-width="1" fill="none"></path></g><g transform="translate(307 405.5) rotate(0 -35.5 21.5)"><path d="M-46.48 38.14 C-55.87 40, -65.27 41.87, -71 43 M-46.48 38.14 C-51.69 39.18, -56.91 40.21, -71 43" stroke="transparent" stroke-width="1" fill="none"></path></g></g><mask></mask><g stroke-linecap="round"><g transform="translate(408 409.5) rotate(0 30.5 19.5)"><path d="M0 0 C10.17 6.5, 50.83 32.5, 61 39 M0 0 C10.17 6.5, 50.83 32.5, 61 39" stroke="transparent" stroke-width="1" fill="none"></path></g><g transform="translate(408 409.5) rotate(0 30.5 19.5)"><path d="M36.6 33.55 C42.98 34.97, 49.35 36.4, 61 39 M36.6 33.55 C41.81 34.71, 47.01 35.87, 61 39" stroke="transparent" stroke-width="1" fill="none"></path></g><g transform="translate(408 409.5) rotate(0 30.5 19.5)"><path d="M45.81 19.14 C49.78 24.33, 53.75 29.52, 61 39 M45.81 19.14 C49.05 23.38, 52.29 27.61, 61 39" stroke="transparent" stroke-width="1" fill="none"></path></g></g><mask></mask></svg>