<svg version="1.1" xmlns="http://www.w3.org/2000/svg" viewBox="0 0 428 416" width="428" height="416" filter="invert(93%) hue-rotate(180deg)">
  <!-- svg-source:excalidraw -->
  
  <defs>
    <style class="style-fonts">
      @font-face {
        font-family: "Virgil";
        src: url("https://excalidraw.com/Virgil.woff2");
      }
      @font-face {
        font-family: "Cascadia";
        src: url("https://excalidraw.com/Cascadia.woff2");
      }
    </style>
    
  </defs>
  <g stroke-linecap="round"><g transform="translate(248 42) rotate(0 -83.5 77)"><path d="M0 0 C-27.83 25.67, -139.17 128.33, -167 154 M0 0 C-27.83 25.67, -139.17 128.33, -167 154" stroke="#1e1e1e" stroke-width="2" fill="none"></path></g></g><mask></mask><g stroke-linecap="round"><g transform="translate(248 43) rotate(0 77.5 168.5)"><path d="M0 0 C25.83 56.17, 129.17 280.83, 155 337 M0 0 C25.83 56.17, 129.17 280.83, 155 337" stroke="#1e1e1e" stroke-width="2" fill="none"></path></g></g><mask></mask><g stroke-linecap="round"><g transform="translate(82 196) rotate(0 160 91.5)"><path d="M0 0 C53.33 30.5, 266.67 152.5, 320 183 M0 0 C53.33 30.5, 266.67 152.5, 320 183" stroke="#1e1e1e" stroke-width="2" fill="none"></path></g></g><mask></mask><g stroke-linecap="round"><g transform="translate(10 195) rotate(0 197 0)"><path d="M0 0 C65.67 0, 328.33 0, 394 0" stroke="#1971c2" stroke-width="2.5" fill="none" stroke-dasharray="1.5 8"></path></g></g><mask></mask><g transform="translate(241 10) rotate(0 5.558333396911621 11.5)"><text x="0" y="0" font-family="Helvetica, Segoe UI Emoji" font-size="20px" fill="#1971c2" text-anchor="start" style="white-space: pre;" direction="ltr" dominant-baseline="text-before-edge">a</text></g><g transform="translate(408 383) rotate(0 5 11.5)"><text x="0" y="0" font-family="Helvetica, Segoe UI Emoji" font-size="20px" fill="#1971c2" text-anchor="start" style="white-space: pre;" direction="ltr" dominant-baseline="text-before-edge">c</text></g><g transform="translate(51 163) rotate(0 11.116666793823242 11.5)"><text x="0" y="0" font-family="Helvetica, Segoe UI Emoji" font-size="20px" fill="#1971c2" text-anchor="start" style="white-space: pre;" direction="ltr" dominant-baseline="text-before-edge">b1</text></g><g transform="translate(325 160) rotate(0 11.116666793823242 11.5)"><text x="0" y="0" font-family="Helvetica, Segoe UI Emoji" font-size="20px" fill="#1971c2" text-anchor="start" style="white-space: pre;" direction="ltr" dominant-baseline="text-before-edge">b2</text></g><g stroke-linecap="round"><g transform="translate(165 119) rotate(0 58 -0.5)"><path d="M0 0 C19.33 -0.17, 96.67 -0.83, 116 -1 M0 0 C19.33 -0.17, 96.67 -0.83, 116 -1" stroke="#e03131" stroke-width="2" fill="none"></path></g></g><mask></mask><g stroke-linecap="round"><g transform="translate(322 41) rotate(0 0.5 38)"><path d="M0 0 C0.17 12.67, 0.83 63.33, 1 76" stroke="#1971c2" stroke-width="2.5" fill="none" stroke-dasharray="1.5 8"></path></g><g transform="translate(322 41) rotate(0 0.5 38)"><path d="M0 0 L6.52 13.51 L-6.16 13.68 L0 0" stroke="none" stroke-width="0" fill="#1971c2" fill-rule="evenodd"></path><path d="M0 0 C2.23 4.63, 4.47 9.26, 6.52 13.51 M6.52 13.51 C3.6 13.55, 0.68 13.59, -6.16 13.68 M-6.16 13.68 C-4.88 10.84, -3.6 8, 0 0 M0 0 C0 0, 0 0, 0 0" stroke="#1971c2" stroke-width="2.5" fill="none"></path></g><g transform="translate(322 41) rotate(0 0.5 38)"><path d="M1 76 L-5.52 62.49 L7.16 62.32 L1 76" stroke="none" stroke-width="0" fill="#1971c2" fill-rule="evenodd"></path><path d="M1 76 C-1.23 71.37, -3.47 66.74, -5.52 62.49 M-5.52 62.49 C-2.6 62.45, 0.32 62.41, 7.16 62.32 M7.16 62.32 C5.88 65.16, 4.6 68, 1 76 M1 76 C1 76, 1 76, 1 76" stroke="#1971c2" stroke-width="2.5" fill="none"></path></g></g><mask></mask><g transform="translate(341 66) rotate(0 5 11.5)"><text x="0" y="0" font-family="Helvetica, Segoe UI Emoji" font-size="20px" fill="#1971c2" text-anchor="start" style="white-space: pre;" direction="ltr" dominant-baseline="text-before-edge">y</text></g><g transform="translate(130.72499990463257 94) rotate(0 10.558333396911621 11.5)"><text x="0" y="0" font-family="Helvetica, Segoe UI Emoji" font-size="20px" fill="#e03131" text-anchor="start" style="white-space: pre;" direction="ltr" dominant-baseline="text-before-edge">s1</text></g><g transform="translate(283.72499990463257 89) rotate(0 10.558333396911621 11.5)"><text x="0" y="0" font-family="Helvetica, Segoe UI Emoji" font-size="20px" fill="#e03131" text-anchor="start" style="white-space: pre;" direction="ltr" dominant-baseline="text-before-edge">s2</text></g></svg>